<?xml version="1.0" encoding="utf-8"?>
<!-- Generator: Adobe Illustrator 24.0.0, SVG Export Plug-In . SVG Version: 6.00 Build 0)  -->
<svg version="1.1" id="Layer_1" xmlns="http://www.w3.org/2000/svg" xmlns:xlink="http://www.w3.org/1999/xlink" x="0px" y="0px"
	 viewBox="0 0 360 420" style="enable-background:new 0 0 360 420;" xml:space="preserve">
<style type="text/css">
	.st0{fill:#FFFFFF;}
	.st1{fill:none;}
	.st2{fill:#89898B;}
	.st3{display:none;fill:none;stroke:#F8B720;stroke-width:10;stroke-miterlimit:10;}
</style>
<g>
	<path class="st0" d="M70,40c0-5.5,4.5-10,10-10h170c22.1,0,40,17.9,40,40v230c0,5.5-4.5,10-10,10H150c-44.2,0-80-35.8-80-80V40z"/>
	<rect x="135" y="69" class="st1" width="90" height="90"/>
</g>
<text transform="matrix(1 0 0 1 364.0839 223.4673)" style="font-family:'MyriadPro-Regular'; font-size:12px;">Jyoti mishra </text>
<g>
	<path d="M123.2,185.7h3.3v11.4c0,1.8-0.1,3.1-0.4,3.8s-0.8,1.3-1.4,1.8s-1.5,0.7-2.4,0.7c-1.9,0-3.5-0.8-4.9-2.5l2.4-2.2
		c0.5,0.6,1,1,1.3,1.2s0.7,0.3,1.1,0.3c0.4,0,0.6-0.1,0.8-0.4s0.3-0.9,0.3-2V185.7z"/>
	<path d="M128.7,190.1h3.3l3.3,8l3.7-8h3.3l-8,17.4h-3.3l2.6-5.6L128.7,190.1z"/>
	<path d="M150,189.8c1.2,0,2.3,0.3,3.4,0.9s1.9,1.4,2.5,2.4s0.9,2.1,0.9,3.3c0,1.2-0.3,2.3-0.9,3.4s-1.4,1.9-2.4,2.5
		s-2.2,0.9-3.4,0.9c-1.8,0-3.4-0.7-4.7-2s-1.9-2.9-1.9-4.7c0-2,0.7-3.7,2.2-5C146.9,190.4,148.3,189.8,150,189.8z M150,192.8
		c-1,0-1.8,0.3-2.5,1c-0.7,0.7-1,1.6-1,2.7c0,1.1,0.3,2,1,2.7c0.7,0.7,1.5,1,2.5,1s1.8-0.3,2.5-1s1-1.6,1-2.7s-0.3-2-1-2.7
		S151.1,192.8,150,192.8z"/>
	<path d="M159.8,185.4h3.2v4.7h1.9v2.8H163v10h-3.2v-10h-1.6v-2.8h1.6V185.4z"/>
	<path d="M167.8,184.9c0.6,0,1,0.2,1.4,0.6c0.4,0.4,0.6,0.9,0.6,1.5c0,0.6-0.2,1.1-0.6,1.5s-0.9,0.6-1.4,0.6c-0.6,0-1.1-0.2-1.5-0.6
		s-0.6-0.9-0.6-1.5c0-0.6,0.2-1,0.6-1.4S167.3,184.9,167.8,184.9z M166.2,190.1h3.2v12.8h-3.2V190.1z"/>
	<path d="M181.1,185.7h3.2l4,12l4-12h3.2l2.9,17.2h-3.2l-1.8-10.9l-3.7,10.9h-2.9l-3.6-10.9l-1.9,10.9h-3.2L181.1,185.7z"/>
	<path d="M201.9,184.9c0.6,0,1,0.2,1.4,0.6c0.4,0.4,0.6,0.9,0.6,1.5c0,0.6-0.2,1.1-0.6,1.5s-0.9,0.6-1.4,0.6c-0.6,0-1.1-0.2-1.5-0.6
		s-0.6-0.9-0.6-1.5c0-0.6,0.2-1,0.6-1.4S201.3,184.9,201.9,184.9z M200.3,190.1h3.2v12.8h-3.2V190.1z"/>
	<path d="M214.2,191.9l-2,2c-0.8-0.8-1.5-1.2-2.2-1.2c-0.4,0-0.6,0.1-0.8,0.2s-0.3,0.3-0.3,0.6c0,0.2,0.1,0.3,0.2,0.5s0.4,0.3,1,0.6
		l1.2,0.6c1.2,0.6,2.1,1.2,2.5,1.9s0.7,1.4,0.7,2.2c0,1.1-0.4,2.1-1.2,2.8s-1.9,1.1-3.3,1.1c-1.9,0-3.3-0.7-4.5-2.2l2-2.1
		c0.4,0.4,0.8,0.8,1.3,1.1s1,0.4,1.3,0.4c0.4,0,0.8-0.1,1-0.3s0.4-0.4,0.4-0.7c0-0.5-0.5-1-1.4-1.4l-1.1-0.5c-2.1-1-3.1-2.3-3.1-3.9
		c0-1,0.4-1.9,1.2-2.6s1.8-1.1,3-1.1c0.8,0,1.6,0.2,2.3,0.5S213.7,191.2,214.2,191.9z"/>
	<path d="M217,185.2h3.2v6.2c0.6-0.5,1.3-0.9,1.9-1.2s1.3-0.4,1.9-0.4c1.3,0,2.3,0.4,3.2,1.3c0.7,0.8,1.1,1.9,1.1,3.3v8.4h-3.2v-5.6
		c0-1.5-0.1-2.5-0.2-3s-0.4-0.9-0.7-1.2s-0.8-0.4-1.3-0.4c-0.6,0-1.2,0.2-1.7,0.6s-0.8,1-1,1.8c-0.1,0.4-0.1,1.3-0.1,2.6v5.1H217
		V185.2z"/>
	<path d="M230.6,190.1h2.7v1.6c0.3-0.6,0.7-1.1,1.2-1.4s1-0.5,1.6-0.5c0.4,0,0.8,0.1,1.3,0.3l-1,2.8c-0.4-0.2-0.7-0.3-0.9-0.3
		c-0.5,0-0.9,0.3-1.2,0.9s-0.5,1.8-0.5,3.6l0,0.6v5.2h-3.2V190.1z"/>
	<path d="M248.4,190.1h3.2v12.8h-3.2v-1.3c-0.6,0.6-1.3,1-1.9,1.3s-1.3,0.4-2,0.4c-1.6,0-3.1-0.6-4.3-1.9c-1.2-1.3-1.8-2.9-1.8-4.8
		c0-2,0.6-3.6,1.7-4.8s2.6-1.9,4.2-1.9c0.8,0,1.5,0.1,2.2,0.4s1.3,0.7,1.9,1.3V190.1z M245.1,192.8c-1,0-1.8,0.3-2.5,1
		c-0.7,0.7-1,1.6-1,2.7c0,1.1,0.3,2,1,2.7c0.7,0.7,1.5,1.1,2.5,1.1c1,0,1.8-0.3,2.5-1c0.7-0.7,1-1.6,1-2.7c0-1.1-0.3-2-1-2.7
		C246.9,193.1,246.1,192.8,245.1,192.8z"/>
</g>
<g>
	<path class="st2" d="M128.9,221.4h-5.6v2.7h4.9v1.6h-4.9v4h-1.7v-9.8h7.3V221.4z"/>
	<path class="st2" d="M137.6,227.4c-0.2,0.5-0.5,0.9-0.8,1.2c-0.3,0.3-0.8,0.6-1.3,0.8s-1,0.3-1.6,0.3c-0.6,0-1.1-0.1-1.6-0.3
		c-0.5-0.2-0.9-0.5-1.2-0.8c-0.4-0.3-0.6-0.8-0.8-1.2s-0.3-1-0.3-1.5s0.1-1,0.3-1.5c0.2-0.5,0.5-0.9,0.8-1.2
		c0.3-0.4,0.8-0.6,1.2-0.8c0.5-0.2,1-0.3,1.6-0.3c0.6,0,1.1,0.1,1.6,0.3c0.5,0.2,0.9,0.5,1.2,0.8c0.4,0.4,0.6,0.8,0.8,1.2
		s0.3,1,0.3,1.5C137.9,226.5,137.8,227,137.6,227.4z M136,225.1c-0.1-0.3-0.3-0.5-0.5-0.8c-0.2-0.2-0.4-0.4-0.7-0.5
		s-0.6-0.2-0.9-0.2s-0.6,0.1-0.9,0.2c-0.3,0.1-0.5,0.3-0.7,0.5c-0.2,0.2-0.3,0.5-0.4,0.7c-0.1,0.3-0.2,0.6-0.2,0.9
		c0,0.3,0.1,0.6,0.2,0.9c0.1,0.3,0.3,0.5,0.5,0.8s0.4,0.4,0.7,0.5c0.3,0.1,0.6,0.2,0.9,0.2c0.3,0,0.7-0.1,0.9-0.2s0.5-0.3,0.7-0.5
		c0.2-0.2,0.3-0.5,0.4-0.7c0.1-0.3,0.2-0.6,0.2-0.9C136.2,225.7,136.1,225.3,136,225.1z"/>
	<path class="st2" d="M144.5,222.3h1.7v7.4h-1.7v-1.2c-0.2,0.4-0.5,0.7-0.9,0.9c-0.4,0.3-0.8,0.4-1.4,0.4c-0.8,0-1.5-0.3-1.9-0.8
		c-0.5-0.5-0.7-1.2-0.7-2.1v-4.7h1.7v4.2c0,0.6,0.1,1,0.4,1.3c0.3,0.3,0.7,0.5,1.2,0.5c0.5,0,0.9-0.2,1.2-0.5
		c0.3-0.3,0.5-0.8,0.5-1.3V222.3z"/>
	<path class="st2" d="M150,229.6h-1.7v-7.4h1.7v1.2c0.1-0.2,0.3-0.3,0.4-0.5s0.3-0.3,0.5-0.4c0.2-0.1,0.4-0.2,0.6-0.3
		c0.2-0.1,0.5-0.1,0.8-0.1c0.8,0,1.5,0.3,1.9,0.8c0.5,0.5,0.7,1.2,0.7,2.1v4.7h-1.7v-4.2c0-0.6-0.1-1-0.4-1.3
		c-0.3-0.3-0.7-0.5-1.2-0.5c-0.5,0-0.9,0.2-1.2,0.5c-0.3,0.3-0.5,0.8-0.5,1.3V229.6z"/>
	<path class="st2" d="M162.5,229.6v-1.2c-0.3,0.4-0.6,0.7-1,1s-0.9,0.4-1.5,0.4c-0.4,0-0.9-0.1-1.3-0.3c-0.4-0.2-0.8-0.4-1.1-0.7
		s-0.6-0.7-0.8-1.2c-0.2-0.5-0.3-1-0.3-1.6c0-0.6,0.1-1.2,0.3-1.6c0.2-0.5,0.4-0.9,0.8-1.2c0.3-0.3,0.7-0.6,1.1-0.7s0.8-0.3,1.3-0.3
		c0.6,0,1.1,0.1,1.5,0.4c0.4,0.3,0.7,0.6,1,0.9v-4h1.7v10.2H162.5z M162.4,225c-0.1-0.3-0.3-0.5-0.5-0.7s-0.4-0.4-0.7-0.5
		c-0.3-0.1-0.5-0.2-0.8-0.2c-0.3,0-0.6,0.1-0.8,0.2c-0.3,0.1-0.5,0.3-0.7,0.5c-0.2,0.2-0.3,0.5-0.5,0.7c-0.1,0.3-0.2,0.6-0.2,1
		c0,0.4,0.1,0.7,0.2,1s0.3,0.5,0.5,0.7s0.4,0.4,0.7,0.5c0.3,0.1,0.5,0.2,0.8,0.2c0.3,0,0.5-0.1,0.8-0.2c0.3-0.1,0.5-0.3,0.7-0.5
		s0.4-0.5,0.5-0.7s0.2-0.6,0.2-1C162.6,225.6,162.5,225.3,162.4,225z"/>
	<path class="st2" d="M168.4,227.9c0.4,0.3,0.8,0.5,1.4,0.5c0.4,0,0.8-0.1,1.1-0.2c0.3-0.1,0.6-0.4,0.9-0.7l1,0.9
		c-0.4,0.4-0.8,0.8-1.3,1s-1.1,0.4-1.8,0.4c-0.5,0-1-0.1-1.5-0.3s-0.9-0.4-1.2-0.8c-0.3-0.3-0.6-0.7-0.8-1.2c-0.2-0.5-0.3-1-0.3-1.6
		c0-0.5,0.1-1,0.3-1.5c0.2-0.5,0.4-0.9,0.7-1.2c0.3-0.4,0.7-0.6,1.1-0.8c0.4-0.2,0.9-0.3,1.5-0.3c0.6,0,1.1,0.1,1.5,0.3
		c0.4,0.2,0.8,0.5,1.1,0.9c0.3,0.4,0.5,0.8,0.7,1.3s0.2,1,0.2,1.5c0,0.1,0,0.1,0,0.2c0,0.1,0,0.2,0,0.2h-5.4
		C167.8,227.2,168,227.6,168.4,227.9z M171.4,225.4c0-0.3-0.1-0.5-0.2-0.8c-0.1-0.2-0.2-0.4-0.4-0.6c-0.2-0.2-0.3-0.3-0.6-0.4
		s-0.5-0.2-0.7-0.2c-0.5,0-1,0.2-1.3,0.5c-0.3,0.4-0.5,0.8-0.6,1.4H171.4z"/>
	<path class="st2" d="M176.5,229.6h-1.7v-7.4h1.7v1.7c0.2-0.6,0.6-1,1-1.3c0.4-0.3,1-0.5,1.6-0.5v1.8H179c-0.4,0-0.7,0.1-1,0.2
		c-0.3,0.1-0.6,0.3-0.8,0.5c-0.2,0.2-0.4,0.5-0.5,0.9c-0.1,0.4-0.2,0.8-0.2,1.3V229.6z"/>
	<path class="st2" d="M185.4,231.4v-13h1.4v13H185.4z"/>
	<path class="st2" d="M201.1,221.4h-5.5v2.5h4.9v1.6h-4.9v2.6h5.6v1.6h-7.3v-9.8h7.3V221.4z"/>
	<path class="st2" d="M208.4,229.6v-1.2c-0.3,0.4-0.6,0.7-1,1s-0.9,0.4-1.5,0.4c-0.4,0-0.9-0.1-1.3-0.3c-0.4-0.2-0.8-0.4-1.1-0.7
		s-0.6-0.7-0.8-1.2c-0.2-0.5-0.3-1-0.3-1.6c0-0.6,0.1-1.2,0.3-1.6c0.2-0.5,0.4-0.9,0.8-1.2c0.3-0.3,0.7-0.6,1.1-0.7s0.8-0.3,1.3-0.3
		c0.6,0,1.1,0.1,1.5,0.4c0.4,0.3,0.7,0.6,1,0.9v-4h1.7v10.2H208.4z M208.3,225c-0.1-0.3-0.3-0.5-0.5-0.7s-0.4-0.4-0.7-0.5
		c-0.3-0.1-0.5-0.2-0.8-0.2c-0.3,0-0.6,0.1-0.8,0.2c-0.3,0.1-0.5,0.3-0.7,0.5c-0.2,0.2-0.3,0.5-0.5,0.7c-0.1,0.3-0.2,0.6-0.2,1
		c0,0.4,0.1,0.7,0.2,1s0.3,0.5,0.5,0.7s0.4,0.4,0.7,0.5c0.3,0.1,0.5,0.2,0.8,0.2c0.3,0,0.5-0.1,0.8-0.2c0.3-0.1,0.5-0.3,0.7-0.5
		s0.4-0.5,0.5-0.7s0.2-0.6,0.2-1C208.5,225.6,208.4,225.3,208.3,225z"/>
	<path class="st2" d="M217.1,222.3h1.7v7.4h-1.7v-1.2c-0.2,0.4-0.5,0.7-0.9,0.9c-0.4,0.3-0.8,0.4-1.4,0.4c-0.8,0-1.5-0.3-1.9-0.8
		c-0.5-0.5-0.7-1.2-0.7-2.1v-4.7h1.7v4.2c0,0.6,0.1,1,0.4,1.3c0.3,0.3,0.7,0.5,1.2,0.5c0.5,0,0.9-0.2,1.2-0.5
		c0.3-0.3,0.5-0.8,0.5-1.3V222.3z"/>
	<path class="st2" d="M226.1,229.4c-0.5,0.3-1.1,0.4-1.8,0.4c-0.6,0-1.1-0.1-1.5-0.3c-0.5-0.2-0.9-0.5-1.2-0.8s-0.6-0.8-0.8-1.2
		c-0.2-0.5-0.3-1-0.3-1.5s0.1-1,0.3-1.5c0.2-0.5,0.5-0.9,0.8-1.2s0.8-0.6,1.2-0.8c0.5-0.2,1-0.3,1.5-0.3c0.7,0,1.3,0.1,1.7,0.4
		s0.9,0.5,1.2,0.9l-1,1.1c-0.3-0.3-0.5-0.5-0.8-0.7s-0.7-0.3-1.1-0.3c-0.3,0-0.6,0.1-0.9,0.2c-0.3,0.1-0.5,0.3-0.7,0.5
		s-0.3,0.5-0.4,0.7c-0.1,0.3-0.2,0.6-0.2,0.9c0,0.3,0.1,0.6,0.2,0.9c0.1,0.3,0.3,0.5,0.5,0.8c0.2,0.2,0.4,0.4,0.7,0.5
		s0.6,0.2,0.9,0.2c0.4,0,0.8-0.1,1.1-0.3c0.3-0.2,0.6-0.4,0.9-0.7l1,1C227,228.8,226.6,229.2,226.1,229.4z"/>
	<path class="st2" d="M233.5,229.6v-0.9c-0.3,0.3-0.6,0.6-1,0.8c-0.4,0.2-0.9,0.3-1.4,0.3c-0.4,0-0.7,0-1-0.1
		c-0.3-0.1-0.6-0.2-0.8-0.4c-0.2-0.2-0.4-0.4-0.6-0.7c-0.1-0.3-0.2-0.6-0.2-1v0c0-0.4,0.1-0.8,0.2-1c0.1-0.3,0.4-0.5,0.6-0.7
		c0.3-0.2,0.6-0.3,1-0.4c0.4-0.1,0.8-0.1,1.2-0.1c0.4,0,0.8,0,1.1,0.1c0.3,0.1,0.6,0.1,0.9,0.2v-0.2c0-0.5-0.2-0.9-0.5-1.2
		s-0.8-0.4-1.4-0.4c-0.4,0-0.8,0-1.1,0.1c-0.3,0.1-0.7,0.2-1,0.3l-0.5-1.4c0.4-0.2,0.8-0.3,1.3-0.4s0.9-0.2,1.6-0.2
		c1.1,0,1.9,0.3,2.5,0.8s0.8,1.3,0.8,2.3v4.4H233.5z M233.5,226.5c-0.2-0.1-0.5-0.2-0.8-0.2s-0.6-0.1-0.9-0.1
		c-0.5,0-0.9,0.1-1.2,0.3c-0.3,0.2-0.4,0.5-0.4,0.9v0c0,0.4,0.1,0.6,0.4,0.8c0.3,0.2,0.6,0.3,1,0.3c0.3,0,0.5,0,0.8-0.1
		c0.2-0.1,0.4-0.2,0.6-0.3c0.2-0.1,0.3-0.3,0.4-0.5c0.1-0.2,0.1-0.4,0.1-0.6V226.5z"/>
	<path class="st2" d="M239.1,227.3c0,0.3,0.1,0.6,0.2,0.7c0.2,0.1,0.4,0.2,0.7,0.2c0.4,0,0.7-0.1,1-0.3v1.4
		c-0.2,0.1-0.4,0.2-0.7,0.3c-0.2,0.1-0.5,0.1-0.8,0.1c-0.3,0-0.6,0-0.9-0.1c-0.3-0.1-0.5-0.2-0.7-0.4c-0.2-0.2-0.3-0.4-0.4-0.7
		s-0.2-0.6-0.2-1v-3.9h-0.9v-1.4h0.9v-2h1.7v2h2v1.4h-2V227.3z"/>
	<path class="st2" d="M249.8,227.4c-0.2,0.5-0.5,0.9-0.8,1.2c-0.3,0.3-0.8,0.6-1.3,0.8s-1,0.3-1.6,0.3c-0.6,0-1.1-0.1-1.6-0.3
		c-0.5-0.2-0.9-0.5-1.2-0.8c-0.4-0.3-0.6-0.8-0.8-1.2s-0.3-1-0.3-1.5s0.1-1,0.3-1.5c0.2-0.5,0.5-0.9,0.8-1.2
		c0.3-0.4,0.8-0.6,1.2-0.8c0.5-0.2,1-0.3,1.6-0.3c0.6,0,1.1,0.1,1.6,0.3c0.5,0.2,0.9,0.5,1.2,0.8c0.4,0.4,0.6,0.8,0.8,1.2
		s0.3,1,0.3,1.5C250.1,226.5,250,227,249.8,227.4z M248.2,225.1c-0.1-0.3-0.3-0.5-0.5-0.8c-0.2-0.2-0.4-0.4-0.7-0.5
		s-0.6-0.2-0.9-0.2s-0.6,0.1-0.9,0.2c-0.3,0.1-0.5,0.3-0.7,0.5c-0.2,0.2-0.3,0.5-0.4,0.7c-0.1,0.3-0.2,0.6-0.2,0.9
		c0,0.3,0.1,0.6,0.2,0.9c0.1,0.3,0.3,0.5,0.5,0.8s0.4,0.4,0.7,0.5c0.3,0.1,0.6,0.2,0.9,0.2c0.3,0,0.7-0.1,0.9-0.2s0.5-0.3,0.7-0.5
		c0.2-0.2,0.3-0.5,0.4-0.7c0.1-0.3,0.2-0.6,0.2-0.9C248.4,225.7,248.3,225.3,248.2,225.1z"/>
	<path class="st2" d="M253.5,229.6h-1.7v-7.4h1.7v1.7c0.2-0.6,0.6-1,1-1.3c0.4-0.3,1-0.5,1.6-0.5v1.8H256c-0.4,0-0.7,0.1-1,0.2
		c-0.3,0.1-0.6,0.3-0.8,0.5c-0.2,0.2-0.4,0.5-0.5,0.9c-0.1,0.4-0.2,0.8-0.2,1.3V229.6z"/>
	<path class="st2" d="M133.6,245.6c-0.3,0.2-0.6,0.4-0.9,0.5c-0.3,0.2-0.7,0.3-1,0.3c-0.4,0.1-0.8,0.1-1.3,0.1c-0.7,0-1.4-0.1-2-0.4
		c-0.6-0.3-1.1-0.6-1.6-1.1s-0.8-1-1-1.6c-0.3-0.6-0.4-1.3-0.4-2c0-0.7,0.1-1.4,0.4-2c0.2-0.6,0.6-1.2,1-1.6c0.4-0.5,1-0.8,1.6-1.1
		c0.6-0.3,1.3-0.4,2-0.4c0.4,0,0.9,0,1.2,0.1c0.4,0.1,0.7,0.2,1,0.3c0.3,0.1,0.6,0.3,0.9,0.5c0.3,0.2,0.5,0.4,0.7,0.6l-1.1,1.3
		c-0.4-0.4-0.8-0.7-1.2-0.9c-0.4-0.2-0.9-0.3-1.5-0.3c-0.5,0-0.9,0.1-1.3,0.3c-0.4,0.2-0.7,0.4-1,0.7s-0.5,0.7-0.7,1.1
		c-0.2,0.4-0.2,0.9-0.2,1.4s0.1,0.9,0.2,1.4c0.2,0.4,0.4,0.8,0.7,1.1s0.6,0.6,1,0.7c0.4,0.2,0.8,0.3,1.3,0.3c0.6,0,1.1-0.1,1.5-0.3
		c0.4-0.2,0.9-0.5,1.3-0.9l1.1,1.1C134.1,245.1,133.9,245.4,133.6,245.6z"/>
	<path class="st2" d="M137.7,246.4H136v-10.2h1.7v4c0.1-0.2,0.3-0.3,0.4-0.5s0.3-0.3,0.5-0.4c0.2-0.1,0.4-0.2,0.6-0.3
		c0.2-0.1,0.5-0.1,0.8-0.1c0.8,0,1.5,0.3,1.9,0.8c0.5,0.5,0.7,1.2,0.7,2.1v4.7h-1.7v-4.2c0-0.6-0.1-1-0.4-1.3
		c-0.3-0.3-0.7-0.5-1.2-0.5c-0.5,0-0.9,0.2-1.2,0.5c-0.3,0.3-0.5,0.8-0.5,1.3V246.4z"/>
	<path class="st2" d="M144.7,237.9v-1.6h1.8v1.6H144.7z M144.8,246.4v-7.4h1.7v7.4H144.8z"/>
	<path class="st2" d="M148.8,246.4v-10.2h1.7v10.2H148.8z"/>
	<path class="st2" d="M158.2,246.4v-1.2c-0.3,0.4-0.6,0.7-1,1s-0.9,0.4-1.5,0.4c-0.4,0-0.9-0.1-1.3-0.3c-0.4-0.2-0.8-0.4-1.1-0.7
		s-0.6-0.7-0.8-1.2c-0.2-0.5-0.3-1-0.3-1.6c0-0.6,0.1-1.2,0.3-1.6c0.2-0.5,0.4-0.9,0.8-1.2s0.7-0.6,1.1-0.7s0.8-0.3,1.3-0.3
		c0.6,0,1.1,0.1,1.5,0.4c0.4,0.3,0.7,0.6,1,0.9v-4h1.7v10.2H158.2z M158.1,241.8c-0.1-0.3-0.3-0.5-0.5-0.7s-0.4-0.4-0.7-0.5
		c-0.3-0.1-0.5-0.2-0.8-0.2c-0.3,0-0.6,0.1-0.8,0.2s-0.5,0.3-0.7,0.5c-0.2,0.2-0.3,0.5-0.5,0.7s-0.2,0.6-0.2,1c0,0.4,0.1,0.7,0.2,1
		s0.3,0.5,0.5,0.7s0.4,0.4,0.7,0.5c0.3,0.1,0.5,0.2,0.8,0.2c0.3,0,0.5-0.1,0.8-0.2c0.3-0.1,0.5-0.3,0.7-0.5s0.4-0.5,0.5-0.7
		s0.2-0.6,0.2-1C158.3,242.4,158.2,242.1,158.1,241.8z"/>
	<path class="st2" d="M173.7,241.4c-0.2,0.4-0.5,0.8-0.8,1s-0.8,0.5-1.2,0.6s-1,0.2-1.5,0.2h-2v3.2h-1.7v-9.8h3.9
		c0.6,0,1.1,0.1,1.5,0.2c0.5,0.2,0.9,0.4,1.2,0.7c0.3,0.3,0.6,0.6,0.7,1s0.3,0.9,0.3,1.4C174,240.5,173.9,241,173.7,241.4z
		 M171.7,238.6c-0.4-0.3-0.9-0.4-1.5-0.4h-2v3.5h2c0.7,0,1.2-0.2,1.6-0.5c0.4-0.3,0.6-0.8,0.6-1.3
		C172.3,239.4,172.1,238.9,171.7,238.6z"/>
	<path class="st2" d="M180.7,245.3c-0.1,0.3-0.3,0.5-0.6,0.7c-0.2,0.2-0.5,0.3-0.9,0.4c-0.3,0.1-0.7,0.1-1.1,0.1
		c-0.5,0-1.1-0.1-1.6-0.3c-0.5-0.2-1.1-0.5-1.5-0.8l0.8-1.1c0.4,0.3,0.8,0.5,1.2,0.7c0.4,0.2,0.8,0.2,1.2,0.2c0.4,0,0.6-0.1,0.8-0.2
		c0.2-0.1,0.3-0.3,0.3-0.6v0c0-0.1,0-0.3-0.1-0.4c-0.1-0.1-0.2-0.2-0.4-0.3s-0.3-0.1-0.5-0.2c-0.2-0.1-0.4-0.1-0.6-0.2
		c-0.3-0.1-0.5-0.2-0.8-0.3c-0.3-0.1-0.5-0.2-0.7-0.4c-0.2-0.2-0.4-0.4-0.5-0.6c-0.1-0.2-0.2-0.5-0.2-0.9v0c0-0.3,0.1-0.7,0.2-0.9
		c0.1-0.3,0.3-0.5,0.6-0.7s0.5-0.3,0.8-0.4c0.3-0.1,0.7-0.2,1-0.2c0.5,0,0.9,0.1,1.4,0.2s0.9,0.4,1.3,0.6L180,241
		c-0.4-0.2-0.7-0.4-1.1-0.5s-0.7-0.2-1-0.2c-0.3,0-0.6,0.1-0.8,0.2c-0.2,0.1-0.3,0.3-0.3,0.5v0c0,0.1,0,0.2,0.1,0.3
		c0.1,0.1,0.2,0.2,0.4,0.3c0.2,0.1,0.3,0.2,0.5,0.2c0.2,0.1,0.4,0.1,0.6,0.2c0.3,0.1,0.5,0.2,0.8,0.3c0.3,0.1,0.5,0.3,0.7,0.4
		c0.2,0.2,0.4,0.4,0.5,0.6c0.1,0.2,0.2,0.5,0.2,0.9v0C180.9,244.7,180.8,245,180.7,245.3z"/>
	<path class="st2" d="M186.3,246.7c-0.1,0.4-0.3,0.7-0.5,1c-0.2,0.3-0.3,0.5-0.5,0.6c-0.2,0.2-0.4,0.3-0.6,0.4
		c-0.2,0.1-0.5,0.1-0.8,0.1c-0.4,0-0.7,0-0.9-0.1s-0.5-0.2-0.8-0.3l0.6-1.3c0.2,0.1,0.3,0.2,0.5,0.2c0.2,0.1,0.3,0.1,0.5,0.1
		c0.2,0,0.4-0.1,0.6-0.2c0.2-0.1,0.3-0.3,0.4-0.7l-3.1-7.4h1.8l2.1,5.5l1.9-5.5h1.8L186.3,246.7z"/>
	<path class="st2" d="M195.5,246.2c-0.5,0.3-1.1,0.4-1.8,0.4c-0.6,0-1.1-0.1-1.5-0.3c-0.5-0.2-0.9-0.5-1.2-0.8s-0.6-0.8-0.8-1.2
		c-0.2-0.5-0.3-1-0.3-1.5s0.1-1,0.3-1.5c0.2-0.5,0.5-0.9,0.8-1.2c0.3-0.4,0.8-0.6,1.2-0.8c0.5-0.2,1-0.3,1.5-0.3
		c0.7,0,1.3,0.1,1.7,0.3c0.5,0.2,0.9,0.5,1.2,0.9l-1,1.1c-0.3-0.3-0.5-0.5-0.8-0.7s-0.7-0.3-1.1-0.3c-0.3,0-0.6,0.1-0.9,0.2
		c-0.3,0.1-0.5,0.3-0.7,0.5c-0.2,0.2-0.3,0.5-0.4,0.7c-0.1,0.3-0.2,0.6-0.2,0.9c0,0.3,0.1,0.6,0.2,0.9c0.1,0.3,0.3,0.5,0.5,0.8
		c0.2,0.2,0.4,0.4,0.7,0.5s0.6,0.2,0.9,0.2c0.4,0,0.8-0.1,1.1-0.3c0.3-0.2,0.6-0.4,0.9-0.7l1,1C196.4,245.6,196,246,195.5,246.2z"/>
	<path class="st2" d="M200,246.4h-1.7v-10.2h1.7v4c0.1-0.2,0.3-0.3,0.4-0.5s0.3-0.3,0.5-0.4c0.2-0.1,0.4-0.2,0.6-0.3
		c0.2-0.1,0.5-0.1,0.8-0.1c0.8,0,1.5,0.3,1.9,0.8c0.5,0.5,0.7,1.2,0.7,2.1v4.7h-1.7v-4.2c0-0.6-0.1-1-0.4-1.3
		c-0.3-0.3-0.7-0.5-1.2-0.5c-0.5,0-0.9,0.2-1.2,0.5c-0.3,0.3-0.5,0.8-0.5,1.3V246.4z"/>
	<path class="st2" d="M214.2,244.2c-0.2,0.5-0.5,0.9-0.8,1.2c-0.3,0.3-0.8,0.6-1.3,0.8s-1,0.3-1.6,0.3c-0.6,0-1.1-0.1-1.6-0.3
		c-0.5-0.2-0.9-0.5-1.2-0.8c-0.4-0.3-0.6-0.8-0.8-1.2s-0.3-1-0.3-1.5s0.1-1,0.3-1.5c0.2-0.5,0.5-0.9,0.8-1.2
		c0.3-0.3,0.8-0.6,1.2-0.8c0.5-0.2,1-0.3,1.6-0.3c0.6,0,1.1,0.1,1.6,0.3c0.5,0.2,0.9,0.5,1.2,0.8c0.4,0.3,0.6,0.8,0.8,1.2
		c0.2,0.5,0.3,1,0.3,1.5C214.5,243.3,214.4,243.8,214.2,244.2z M212.6,241.9c-0.1-0.3-0.3-0.5-0.5-0.8c-0.2-0.2-0.4-0.4-0.7-0.5
		s-0.6-0.2-0.9-0.2s-0.6,0.1-0.9,0.2c-0.3,0.1-0.5,0.3-0.7,0.5c-0.2,0.2-0.3,0.5-0.4,0.7c-0.1,0.3-0.2,0.6-0.2,0.9
		c0,0.3,0.1,0.6,0.2,0.9c0.1,0.3,0.3,0.5,0.5,0.8s0.4,0.4,0.7,0.5c0.3,0.1,0.6,0.2,0.9,0.2c0.3,0,0.7-0.1,0.9-0.2s0.5-0.3,0.7-0.5
		c0.2-0.2,0.3-0.5,0.4-0.7c0.1-0.3,0.2-0.6,0.2-0.9C212.8,242.5,212.7,242.1,212.6,241.9z"/>
	<path class="st2" d="M216.3,246.4v-10.2h1.7v10.2H216.3z"/>
	<path class="st2" d="M227.4,244.2c-0.2,0.5-0.5,0.9-0.8,1.2c-0.3,0.3-0.8,0.6-1.3,0.8s-1,0.3-1.6,0.3c-0.6,0-1.1-0.1-1.6-0.3
		c-0.5-0.2-0.9-0.5-1.2-0.8c-0.4-0.3-0.6-0.8-0.8-1.2s-0.3-1-0.3-1.5s0.1-1,0.3-1.5c0.2-0.5,0.5-0.9,0.8-1.2
		c0.3-0.3,0.8-0.6,1.2-0.8c0.5-0.2,1-0.3,1.6-0.3c0.6,0,1.1,0.1,1.6,0.3c0.5,0.2,0.9,0.5,1.2,0.8c0.4,0.3,0.6,0.8,0.8,1.2
		c0.2,0.5,0.3,1,0.3,1.5C227.7,243.3,227.6,243.8,227.4,244.2z M225.8,241.9c-0.1-0.3-0.3-0.5-0.5-0.8c-0.2-0.2-0.4-0.4-0.7-0.5
		s-0.6-0.2-0.9-0.2s-0.6,0.1-0.9,0.2c-0.3,0.1-0.5,0.3-0.7,0.5c-0.2,0.2-0.3,0.5-0.4,0.7c-0.1,0.3-0.2,0.6-0.2,0.9
		c0,0.3,0.1,0.6,0.2,0.9c0.1,0.3,0.3,0.5,0.5,0.8s0.4,0.4,0.7,0.5c0.3,0.1,0.6,0.2,0.9,0.2c0.3,0,0.7-0.1,0.9-0.2s0.5-0.3,0.7-0.5
		c0.2-0.2,0.3-0.5,0.4-0.7c0.1-0.3,0.2-0.6,0.2-0.9C226,242.5,225.9,242.1,225.8,241.9z"/>
	<path class="st2" d="M235.6,247.8c-0.7,0.6-1.7,0.9-2.9,0.9c-1.2,0-2.3-0.3-3.3-0.9l0.6-1.3c0.4,0.2,0.8,0.4,1.2,0.6
		c0.4,0.1,0.9,0.2,1.4,0.2c0.8,0,1.3-0.2,1.7-0.6s0.6-1,0.6-1.7v-0.6c-0.3,0.4-0.7,0.7-1.1,1c-0.4,0.3-0.9,0.4-1.5,0.4
		c-0.4,0-0.9-0.1-1.3-0.2c-0.4-0.2-0.8-0.4-1.1-0.7s-0.6-0.7-0.7-1.1s-0.3-0.9-0.3-1.5s0.1-1,0.3-1.5c0.2-0.4,0.4-0.8,0.7-1.1
		s0.7-0.5,1.1-0.7c0.4-0.2,0.8-0.2,1.3-0.2c0.6,0,1.1,0.1,1.5,0.4c0.4,0.2,0.8,0.5,1,0.9v-1.1h1.7v5.9
		C236.7,246.2,236.3,247.2,235.6,247.8z M234.8,241.5c-0.1-0.3-0.3-0.5-0.5-0.6c-0.2-0.2-0.4-0.3-0.7-0.4c-0.3-0.1-0.5-0.1-0.8-0.1
		c-0.3,0-0.6,0-0.8,0.1s-0.5,0.2-0.7,0.4s-0.3,0.4-0.4,0.6s-0.2,0.5-0.2,0.8c0,0.3,0.1,0.6,0.2,0.8c0.1,0.3,0.3,0.5,0.4,0.6
		s0.4,0.3,0.7,0.4s0.5,0.1,0.8,0.1s0.6,0,0.8-0.1c0.3-0.1,0.5-0.2,0.7-0.4c0.2-0.2,0.4-0.4,0.5-0.6c0.1-0.2,0.2-0.5,0.2-0.8
		C235,242.1,234.9,241.8,234.8,241.5z"/>
	<path class="st2" d="M238.8,237.9v-1.6h1.8v1.6H238.8z M238.9,246.4v-7.4h1.7v7.4H238.9z"/>
	<path class="st2" d="M247.8,245.3c-0.1,0.3-0.3,0.5-0.6,0.7c-0.2,0.2-0.5,0.3-0.9,0.4c-0.3,0.1-0.7,0.1-1.1,0.1
		c-0.5,0-1.1-0.1-1.6-0.3c-0.5-0.2-1.1-0.5-1.5-0.8l0.8-1.1c0.4,0.3,0.8,0.5,1.2,0.7c0.4,0.2,0.8,0.2,1.2,0.2c0.4,0,0.6-0.1,0.8-0.2
		c0.2-0.1,0.3-0.3,0.3-0.6v0c0-0.1,0-0.3-0.1-0.4c-0.1-0.1-0.2-0.2-0.4-0.3s-0.3-0.1-0.5-0.2c-0.2-0.1-0.4-0.1-0.6-0.2
		c-0.3-0.1-0.5-0.2-0.8-0.3c-0.3-0.1-0.5-0.2-0.7-0.4c-0.2-0.2-0.4-0.4-0.5-0.6c-0.1-0.2-0.2-0.5-0.2-0.9v0c0-0.3,0.1-0.7,0.2-0.9
		c0.1-0.3,0.3-0.5,0.6-0.7s0.5-0.3,0.8-0.4c0.3-0.1,0.7-0.2,1-0.2c0.5,0,0.9,0.1,1.4,0.2s0.9,0.4,1.3,0.6l-0.7,1.2
		c-0.4-0.2-0.7-0.4-1.1-0.5s-0.7-0.2-1-0.2c-0.3,0-0.6,0.1-0.8,0.2c-0.2,0.1-0.3,0.3-0.3,0.5v0c0,0.1,0,0.2,0.1,0.3
		c0.1,0.1,0.2,0.2,0.4,0.3c0.2,0.1,0.3,0.2,0.5,0.2c0.2,0.1,0.4,0.1,0.6,0.2c0.3,0.1,0.5,0.2,0.8,0.3c0.3,0.1,0.5,0.3,0.7,0.4
		c0.2,0.2,0.4,0.4,0.5,0.6c0.1,0.2,0.2,0.5,0.2,0.9v0C248.1,244.7,248,245,247.8,245.3z"/>
	<path class="st2" d="M251.7,244.1c0,0.3,0.1,0.6,0.2,0.7c0.2,0.1,0.4,0.2,0.7,0.2c0.4,0,0.7-0.1,1-0.3v1.4
		c-0.2,0.1-0.4,0.2-0.7,0.3c-0.2,0.1-0.5,0.1-0.8,0.1c-0.3,0-0.6,0-0.9-0.1c-0.3-0.1-0.5-0.2-0.7-0.4c-0.2-0.2-0.3-0.4-0.4-0.7
		s-0.2-0.6-0.2-1v-3.9H249v-1.4h0.9v-2h1.7v2h2v1.4h-2V244.1z"/>
</g>
<circle class="st3" cx="185" cy="114" r="43"/>
</svg>
