<?xml version="1.0" encoding="utf-8"?>
<!-- Generator: Adobe Illustrator 24.0.0, SVG Export Plug-In . SVG Version: 6.00 Build 0)  -->
<svg version="1.1" id="Layer_1" xmlns="http://www.w3.org/2000/svg" xmlns:xlink="http://www.w3.org/1999/xlink" x="0px" y="0px"
	 viewBox="0 0 380 190" style="enable-background:new 0 0 380 190;" xml:space="preserve">
<style type="text/css">
	.st0{fill:#FFFFFF;}
	.st1{fill:#FDEDEF;}
	.st2{fill:#EE4A62;}
	.st3{fill:#89898B;}
	.st4{fill:#EE4A62;stroke:#000000;stroke-width:0.1;stroke-miterlimit:10;}
</style>
<g>
	<path shape-rendering="crispEdges" class="st0" d="M41.2,80.8c0-27.6,22.4-50,50-50h240c5.5,0,10,4.5,10,10v50
		c0,27.6-22.4,50-50,50h-240c-5.5,0-10-4.5-10-10V80.8z"/>
	<circle class="st1" cx="96.2" cy="85.8" r="25"/>
	<path class="st2" d="M102.3,96.2c-1,0-2.3-0.3-4.3-1.5c-2.4-1.4-4.3-2.6-6.7-5c-2.3-2.3-3.5-3.8-5.1-6.7c-1.8-3.3-1.5-5-1.1-5.7
		c0.4-0.9,1-1.4,1.8-1.9c0.4-0.3,0.9-0.5,1.4-0.7c0,0,0.1,0,0.1-0.1c0.2-0.1,0.6-0.3,1.1-0.1c0.3,0.1,0.6,0.4,1,0.8
		c0.9,0.9,2.1,2.8,2.5,3.8c0.3,0.6,0.5,1.1,0.5,1.5c0,0.6-0.3,1-0.6,1.5c-0.1,0.1-0.1,0.2-0.2,0.3c-0.4,0.5-0.5,0.6-0.4,0.9
		c0.1,0.5,0.9,2,2.3,3.3s2.8,2.1,3.3,2.2c0.3,0.1,0.4,0,0.9-0.4c0.1-0.1,0.1-0.1,0.2-0.2c0.5-0.4,0.9-0.7,1.5-0.7h0
		c0.5,0,0.9,0.2,1.6,0.5c0.9,0.4,2.9,1.6,3.8,2.5c0.4,0.4,0.7,0.7,0.8,1c0.2,0.5,0,0.8-0.1,1.1c0,0,0,0.1-0.1,0.1
		c-0.2,0.5-0.5,1-0.7,1.4c-0.5,0.8-1,1.4-1.9,1.8C103.2,96.1,102.7,96.3,102.3,96.2z"/>
	<path class="st3" d="M141.3,76.9c-0.9,0-1.6-0.2-2.4-0.6c-0.7-0.4-1.3-1-1.7-1.7c-0.4-0.7-0.6-1.5-0.6-2.4s0.2-1.7,0.6-2.4
		c0.4-0.7,1-1.3,1.7-1.7c0.7-0.4,1.5-0.6,2.4-0.6c0.9,0,1.6,0.2,2.4,0.6c0.7,0.4,1.3,1,1.7,1.7c0.4,0.7,0.6,1.5,0.6,2.4
		s-0.2,1.7-0.6,2.4c-0.4,0.7-1,1.3-1.7,1.7C142.9,76.7,142.1,76.9,141.3,76.9z M141.3,74.9c0.7,0,1.3-0.2,1.7-0.7
		c0.4-0.5,0.7-1.1,0.7-1.9c0-0.8-0.2-1.4-0.7-1.9c-0.4-0.5-1-0.7-1.7-0.7c-0.7,0-1.3,0.2-1.8,0.7c-0.4,0.5-0.7,1.1-0.7,1.9
		c0,0.8,0.2,1.5,0.7,1.9C140,74.6,140.5,74.9,141.3,74.9z M155.7,76.8h-2.2l-3.7-5.6v5.6h-2.2v-9.1h2.2l3.7,5.7v-5.7h2.2V76.8z
		 M160,75.1h2.9v1.7h-5.1v-9.1h2.2V75.1z M166.5,67.7v9.1h-2.2v-9.1H166.5z M176.7,76.8h-2.2l-3.7-5.6v5.6h-2.2v-9.1h2.2l3.7,5.7
		v-5.7h2.2V76.8z M180.9,69.5v1.8h3V73h-3v2h3.4v1.8h-5.6v-9.1h5.6v1.8H180.9z M192.6,76.9c-0.7,0-1.3-0.1-1.8-0.3
		c-0.5-0.2-1-0.5-1.3-1c-0.3-0.4-0.5-0.9-0.5-1.5h2.4c0,0.3,0.2,0.6,0.4,0.8c0.2,0.2,0.5,0.3,0.8,0.3c0.3,0,0.6-0.1,0.8-0.2
		c0.2-0.2,0.3-0.4,0.3-0.6c0-0.2-0.1-0.4-0.2-0.6c-0.1-0.1-0.3-0.3-0.6-0.4c-0.2-0.1-0.5-0.2-0.9-0.3c-0.6-0.2-1.1-0.4-1.4-0.5
		s-0.7-0.5-1-0.8c-0.3-0.4-0.4-0.8-0.4-1.4c0-0.8,0.3-1.5,0.9-2c0.6-0.5,1.4-0.7,2.4-0.7c1,0,1.8,0.2,2.4,0.7c0.6,0.5,0.9,1.1,1,2
		h-2.4c0-0.3-0.1-0.5-0.3-0.7c-0.2-0.2-0.5-0.3-0.8-0.3c-0.3,0-0.5,0.1-0.6,0.2c-0.2,0.1-0.2,0.3-0.2,0.6c0,0.3,0.1,0.5,0.4,0.7
		c0.3,0.2,0.7,0.3,1.3,0.5c0.6,0.2,1.1,0.4,1.4,0.6c0.4,0.2,0.7,0.4,1,0.8c0.3,0.3,0.4,0.8,0.4,1.3c0,0.5-0.1,1-0.4,1.4
		c-0.3,0.4-0.6,0.8-1.1,1C193.9,76.8,193.3,76.9,192.6,76.9z M199.9,67.7v5.5c0,0.5,0.1,1,0.4,1.3s0.7,0.4,1.2,0.4s0.9-0.1,1.2-0.4
		c0.3-0.3,0.4-0.7,0.4-1.3v-5.5h2.2v5.4c0,0.8-0.2,1.5-0.5,2.1s-0.8,1-1.4,1.3c-0.6,0.3-1.2,0.4-1.9,0.4c-0.7,0-1.4-0.1-1.9-0.4
		c-0.6-0.3-1-0.7-1.3-1.3c-0.3-0.6-0.5-1.3-0.5-2.1v-5.4H199.9z M214.2,70.6c0,0.5-0.1,1-0.4,1.5c-0.2,0.4-0.6,0.8-1.1,1.1
		s-1.1,0.4-1.9,0.4h-1.4v3.3h-2.2v-9.1h3.6c0.7,0,1.3,0.1,1.8,0.4c0.5,0.3,0.9,0.6,1.1,1C214.1,69.5,214.2,70.1,214.2,70.6z
		 M210.7,71.8c0.4,0,0.7-0.1,0.9-0.3c0.2-0.2,0.3-0.5,0.3-0.8s-0.1-0.6-0.3-0.8c-0.2-0.2-0.5-0.3-0.9-0.3h-1.2v2.3H210.7z
		 M222.7,70.6c0,0.5-0.1,1-0.4,1.5c-0.2,0.4-0.6,0.8-1.1,1.1c-0.5,0.3-1.1,0.4-1.9,0.4H218v3.3h-2.2v-9.1h3.6c0.7,0,1.3,0.1,1.8,0.4
		c0.5,0.3,0.9,0.6,1.1,1C222.6,69.5,222.7,70.1,222.7,70.6z M219.2,71.8c0.4,0,0.7-0.1,0.9-0.3c0.2-0.2,0.3-0.5,0.3-0.8
		s-0.1-0.6-0.3-0.8c-0.2-0.2-0.5-0.3-0.9-0.3H218v2.3H219.2z M228.5,76.9c-0.9,0-1.6-0.2-2.4-0.6c-0.7-0.4-1.3-1-1.7-1.7
		c-0.4-0.7-0.6-1.5-0.6-2.4s0.2-1.7,0.6-2.4c0.4-0.7,1-1.3,1.7-1.7c0.7-0.4,1.5-0.6,2.4-0.6c0.9,0,1.6,0.2,2.4,0.6
		c0.7,0.4,1.3,1,1.7,1.7c0.4,0.7,0.6,1.5,0.6,2.4s-0.2,1.7-0.6,2.4c-0.4,0.7-1,1.3-1.7,1.7C230.2,76.7,229.4,76.9,228.5,76.9z
		 M228.5,74.9c0.7,0,1.3-0.2,1.7-0.7c0.4-0.5,0.7-1.1,0.7-1.9c0-0.8-0.2-1.4-0.7-1.9c-0.4-0.5-1-0.7-1.7-0.7c-0.7,0-1.3,0.2-1.8,0.7
		c-0.4,0.5-0.7,1.1-0.7,1.9c0,0.8,0.2,1.5,0.7,1.9C227.2,74.6,227.8,74.9,228.5,74.9z M239.5,76.8l-1.9-3.4h-0.5v3.4h-2.2v-9.1h3.7
		c0.7,0,1.3,0.1,1.8,0.4c0.5,0.3,0.9,0.6,1.1,1c0.3,0.4,0.4,0.9,0.4,1.5c0,0.6-0.2,1.1-0.5,1.6c-0.3,0.5-0.8,0.8-1.5,1l2.1,3.6
		H239.5z M237.1,71.8h1.4c0.4,0,0.7-0.1,0.9-0.3c0.2-0.2,0.3-0.5,0.3-0.8c0-0.3-0.1-0.6-0.3-0.8c-0.2-0.2-0.5-0.3-0.9-0.3h-1.4V71.8
		z M250.3,67.7v1.8h-2.4v7.3h-2.2v-7.3h-2.4v-1.8H250.3z"/>
</g>
<g>
	<path class="st4" d="M143.2,100.7v-4.9h1.5v4.9h4.9v1.5h-4.9v4.9h-1.5v-4.9h-4.9v-1.5H143.2z"/>
	<path class="st4" d="M155.4,110.2l-1.4-0.9l4.5-6.8c-0.6,0.2-1.2,0.3-1.7,0.3c-1.3,0-2.4-0.5-3.3-1.4c-0.9-0.9-1.4-2.1-1.4-3.5
		c0-1,0.2-1.8,0.7-2.6s1.1-1.4,1.9-1.8c0.8-0.5,1.7-0.7,2.6-0.7c0.9,0,1.8,0.2,2.5,0.7c0.8,0.4,1.4,1.1,1.8,1.9
		c0.4,0.8,0.7,1.6,0.7,2.5c0,0.7-0.1,1.4-0.4,2.1c-0.3,0.7-0.8,1.6-1.5,2.7L155.4,110.2z M157.2,101.4c1,0,1.8-0.3,2.5-1
		c0.7-0.7,1-1.5,1-2.5s-0.3-1.8-1-2.5c-0.7-0.7-1.5-1-2.5-1c-1,0-1.8,0.3-2.5,1c-0.7,0.7-1,1.5-1,2.5s0.3,1.8,1,2.5
		C155.4,101,156.2,101.4,157.2,101.4z"/>
	<path class="st4" d="M167.9,93.2h3.2v16.5h-1.6V94.9H167L167.9,93.2z"/>
	<path class="st4" d="M191.6,100.7c1.1,0.6,1.9,1.2,2.4,1.9c0.5,0.7,0.7,1.5,0.7,2.4c0,1.3-0.4,2.4-1.2,3.4c-1,1.2-2.5,1.8-4.4,1.8
		c-1.8,0-3.2-0.5-4.2-1.6c-0.9-1-1.4-2.2-1.4-3.5c0-0.9,0.2-1.8,0.7-2.5c0.5-0.7,1.3-1.4,2.5-2c-0.8-0.4-1.4-0.9-1.8-1.6
		s-0.6-1.3-0.6-2c0-0.7,0.2-1.4,0.6-2.1c0.4-0.7,1-1.2,1.8-1.6c0.8-0.4,1.6-0.6,2.5-0.6c0.9,0,1.7,0.2,2.4,0.6s1.3,0.9,1.7,1.6
		c0.4,0.7,0.6,1.4,0.6,2.1s-0.2,1.4-0.6,2C193,99.8,192.4,100.3,191.6,100.7z M189.3,101.5c-1.1,0-2.1,0.4-2.9,1.1
		c-0.8,0.7-1.2,1.6-1.2,2.6c0,0.6,0.2,1.2,0.5,1.7s0.8,1,1.4,1.2s1.3,0.4,2.1,0.4c1.2,0,2.2-0.4,2.9-1.1c0.7-0.7,1.1-1.5,1.1-2.5
		c0-0.9-0.4-1.7-1.1-2.5C191.2,101.9,190.3,101.5,189.3,101.5z M189.2,94.4c-0.9,0-1.7,0.3-2.3,0.8c-0.6,0.5-0.9,1.2-0.9,1.9
		c0,0.7,0.3,1.4,1,2c0.6,0.6,1.4,0.9,2.2,0.9c0.5,0,1.1-0.1,1.6-0.4c0.5-0.3,0.9-0.6,1.1-1.1c0.3-0.5,0.4-0.9,0.4-1.4
		c0-0.7-0.3-1.3-0.8-1.8S190.2,94.4,189.2,94.4z"/>
	<path class="st4" d="M206.9,93.2v1.6H201l-0.8,4.5c0.7-0.2,1.4-0.3,1.9-0.3c1.5,0,2.7,0.5,3.7,1.5c1,1,1.5,2.3,1.5,3.9
		c0,1.1-0.3,2.1-0.8,3s-1.2,1.6-2,2.1c-0.9,0.5-1.8,0.7-3,0.7c-1.3,0-2.5-0.4-3.4-1.2c-0.9-0.8-1.5-1.9-1.7-3.2h1.7
		c0.1,0.6,0.3,1.2,0.6,1.5c0.3,0.4,0.7,0.7,1.2,1c0.5,0.2,1,0.4,1.6,0.4c1.1,0,2-0.4,2.8-1.2s1.2-1.9,1.2-3.1c0-1.1-0.4-2-1.1-2.7
		s-1.6-1-2.8-1c-1,0-2.2,0.3-3.5,0.9l1.5-8.2H206.9z"/>
	<path class="st4" d="M211.3,97.1h-1.7c0.3-1.4,0.9-2.4,1.8-3.1s1.9-1.1,3.1-1.1c0.9,0,1.7,0.2,2.4,0.6c0.7,0.4,1.3,0.9,1.7,1.6
		s0.6,1.4,0.6,2.1c0,1.4-0.7,2.5-2.1,3.4c0.8,0.3,1.4,0.8,2,1.4c0.7,0.9,1.1,1.9,1.1,2.9c0,0.9-0.2,1.8-0.7,2.7
		c-0.5,0.9-1.2,1.5-2,2s-1.8,0.7-2.9,0.7c-1.4,0-2.6-0.4-3.6-1.2c-1-0.8-1.6-2-1.9-3.6h1.6c0.3,1.1,0.7,1.8,1.2,2.3
		c0.7,0.6,1.5,0.9,2.6,0.9c1.2,0,2.2-0.4,2.9-1.1s1.1-1.6,1.1-2.5c0-0.6-0.2-1.2-0.5-1.8s-0.8-1-1.5-1.3s-1.6-0.5-2.8-0.5v-1.5
		c0.8,0,1.4-0.1,2.1-0.4c0.6-0.3,1.1-0.6,1.4-1c0.3-0.4,0.4-0.9,0.4-1.3c0-0.7-0.3-1.3-0.9-1.9c-0.6-0.5-1.3-0.8-2.2-0.8
		c-0.7,0-1.3,0.2-1.8,0.6C212.1,95.4,211.7,96.1,211.3,97.1z"/>
	<path class="st4" d="M225.5,110.2l-1.4-0.9l4.5-6.8c-0.6,0.2-1.2,0.3-1.7,0.3c-1.3,0-2.4-0.5-3.3-1.4c-0.9-0.9-1.4-2.1-1.4-3.5
		c0-1,0.2-1.8,0.7-2.6c0.4-0.8,1.1-1.4,1.9-1.8s1.7-0.7,2.6-0.7c0.9,0,1.8,0.2,2.5,0.7c0.8,0.4,1.4,1.1,1.8,1.9
		c0.4,0.8,0.7,1.6,0.7,2.5c0,0.7-0.1,1.4-0.4,2.1c-0.3,0.7-0.8,1.6-1.5,2.7L225.5,110.2z M227.3,101.4c1,0,1.8-0.3,2.5-1
		c0.7-0.7,1-1.5,1-2.5s-0.3-1.8-1-2.5c-0.7-0.7-1.5-1-2.5-1c-1,0-1.8,0.3-2.5,1c-0.7,0.7-1,1.5-1,2.5s0.3,1.8,1,2.5
		C225.5,101,226.3,101.4,227.3,101.4z"/>
	<path class="st4" d="M234.5,101.5c0-2.2,0.2-3.9,0.7-5.1s1.1-2.1,2-2.7s1.8-0.9,2.9-0.9c1.1,0,2,0.3,2.9,0.9
		c0.9,0.6,1.6,1.5,2.1,2.8c0.5,1.2,0.8,2.9,0.8,5c0,2.1-0.2,3.7-0.7,5s-1.2,2.2-2.1,2.8c-0.9,0.6-1.8,0.9-2.9,0.9
		c-1.1,0-2-0.3-2.9-0.9c-0.8-0.6-1.5-1.5-2-2.7C234.8,105.4,234.5,103.7,234.5,101.5z M236.1,101.5c0,1.9,0.2,3.3,0.5,4.2
		c0.3,1,0.8,1.7,1.5,2.2s1.3,0.7,2.1,0.7c0.7,0,1.4-0.2,2.1-0.7c0.6-0.5,1.1-1.2,1.4-2.2c0.4-1.2,0.6-2.6,0.6-4.2
		c0-1.7-0.2-3-0.5-4.1c-0.4-1.1-0.9-1.8-1.5-2.3s-1.3-0.7-2-0.7c-0.7,0-1.4,0.2-2.1,0.7s-1.1,1.2-1.5,2.2
		C236.3,98.3,236.1,99.7,236.1,101.5z"/>
	<path class="st4" d="M253.6,101.5c0-2.2,0.2-3.9,0.7-5.1s1.1-2.1,2-2.7c0.9-0.6,1.8-0.9,2.9-0.9c1.1,0,2,0.3,2.9,0.9
		c0.9,0.6,1.6,1.5,2.1,2.8c0.5,1.2,0.8,2.9,0.8,5c0,2.1-0.2,3.7-0.7,5s-1.2,2.2-2.1,2.8c-0.9,0.6-1.8,0.9-2.9,0.9
		c-1.1,0-2-0.3-2.9-0.9c-0.8-0.6-1.5-1.5-2-2.7C253.9,105.4,253.6,103.7,253.6,101.5z M255.2,101.5c0,1.9,0.2,3.3,0.5,4.2
		c0.3,1,0.8,1.7,1.5,2.2s1.3,0.7,2.1,0.7c0.7,0,1.4-0.2,2.1-0.7c0.6-0.5,1.1-1.2,1.4-2.2c0.4-1.2,0.6-2.6,0.6-4.2
		c0-1.7-0.2-3-0.5-4.1c-0.4-1.1-0.9-1.8-1.5-2.3s-1.3-0.7-2-0.7c-0.7,0-1.4,0.2-2.1,0.7s-1.1,1.2-1.5,2.2
		C255.4,98.3,255.2,99.7,255.2,101.5z"/>
	<path class="st4" d="M274.5,100.7c1.1,0.6,1.9,1.2,2.4,1.9c0.5,0.7,0.7,1.5,0.7,2.4c0,1.3-0.4,2.4-1.2,3.4c-1,1.2-2.5,1.8-4.4,1.8
		c-1.8,0-3.2-0.5-4.2-1.6c-0.9-1-1.4-2.2-1.4-3.5c0-0.9,0.2-1.8,0.7-2.5c0.5-0.7,1.3-1.4,2.5-2c-0.8-0.4-1.4-0.9-1.8-1.6
		s-0.6-1.3-0.6-2c0-0.7,0.2-1.4,0.6-2.1c0.4-0.7,1-1.2,1.8-1.6c0.8-0.4,1.6-0.6,2.5-0.6c0.9,0,1.7,0.2,2.4,0.6s1.3,0.9,1.7,1.6
		c0.4,0.7,0.6,1.4,0.6,2.1s-0.2,1.4-0.6,2C275.9,99.8,275.3,100.3,274.5,100.7z M272.1,101.5c-1.1,0-2.1,0.4-2.9,1.1
		c-0.8,0.7-1.2,1.6-1.2,2.6c0,0.6,0.2,1.2,0.5,1.7s0.8,1,1.4,1.2s1.3,0.4,2.1,0.4c1.2,0,2.2-0.4,2.9-1.1c0.7-0.7,1.1-1.5,1.1-2.5
		c0-0.9-0.4-1.7-1.1-2.5C274.1,101.9,273.2,101.5,272.1,101.5z M272,94.4c-0.9,0-1.7,0.3-2.3,0.8c-0.6,0.5-0.9,1.2-0.9,1.9
		c0,0.7,0.3,1.4,1,2c0.6,0.6,1.4,0.9,2.2,0.9c0.5,0,1.1-0.1,1.6-0.4c0.5-0.3,0.9-0.6,1.1-1.1c0.3-0.5,0.4-0.9,0.4-1.4
		c0-0.7-0.3-1.3-0.8-1.8S273.1,94.4,272,94.4z"/>
	<path class="st4" d="M279.1,101.5c0-2.2,0.2-3.9,0.7-5.1s1.1-2.1,2-2.7s1.8-0.9,2.9-0.9c1.1,0,2,0.3,2.9,0.9
		c0.9,0.6,1.6,1.5,2.1,2.8c0.5,1.2,0.8,2.9,0.8,5c0,2.1-0.2,3.7-0.7,5s-1.2,2.2-2.1,2.8c-0.9,0.6-1.8,0.9-2.9,0.9
		c-1.1,0-2-0.3-2.9-0.9c-0.8-0.6-1.5-1.5-2-2.7C279.4,105.4,279.1,103.7,279.1,101.5z M280.7,101.5c0,1.9,0.2,3.3,0.5,4.2
		c0.3,1,0.8,1.7,1.5,2.2s1.3,0.7,2.1,0.7c0.7,0,1.4-0.2,2.1-0.7c0.6-0.5,1.1-1.2,1.4-2.2c0.4-1.2,0.6-2.6,0.6-4.2
		c0-1.7-0.2-3-0.5-4.1c-0.4-1.1-0.9-1.8-1.5-2.3s-1.3-0.7-2-0.7c-0.7,0-1.4,0.2-2.1,0.7s-1.1,1.2-1.5,2.2
		C280.9,98.3,280.7,99.7,280.7,101.5z"/>
	<path class="st4" d="M302.5,93.2v1.6h-5.9l-0.8,4.5c0.7-0.2,1.4-0.3,1.9-0.3c1.5,0,2.7,0.5,3.7,1.5c1,1,1.5,2.3,1.5,3.9
		c0,1.1-0.3,2.1-0.8,3s-1.2,1.6-2,2.1c-0.9,0.5-1.8,0.7-3,0.7c-1.3,0-2.5-0.4-3.4-1.2c-0.9-0.8-1.5-1.9-1.7-3.2h1.7
		c0.1,0.6,0.3,1.2,0.6,1.5c0.3,0.4,0.7,0.7,1.2,1c0.5,0.2,1,0.4,1.6,0.4c1.1,0,2-0.4,2.8-1.2s1.2-1.9,1.2-3.1c0-1.1-0.4-2-1.1-2.7
		s-1.6-1-2.8-1c-1,0-2.2,0.3-3.5,0.9l1.5-8.2H302.5z"/>
	<path class="st4" d="M308.2,93.2h3.2v16.5h-1.6V94.9h-2.6L308.2,93.2z"/>
</g>
</svg>
