<?xml version="1.0" encoding="utf-8"?>
<!-- Generator: Adobe Illustrator 24.0.0, SVG Export Plug-In . SVG Version: 6.00 Build 0)  -->
<svg version="1.1" id="Layer_1" xmlns="http://www.w3.org/2000/svg" xmlns:xlink="http://www.w3.org/1999/xlink" x="0px" y="0px"
	 viewBox="0 0 197.4 59.5" style="enable-background:new 0 0 197.4 59.5;" xml:space="preserve">
<style type="text/css">
	.st0{fill:url(#SVGID_1_);}
	.st1{fill:url(#SVGID_2_);}
	.st2{opacity:0.25;}
	.st3{fill:#FBFFA5;}
	.st4{opacity:0.3;}
	.st5{opacity:0.16;fill:#4E0300;}
	.st6{fill:#151517;}
	.st7{fill:url(#SVGID_3_);}
	.st8{fill:url(#SVGID_4_);}
	.st9{fill:url(#SVGID_5_);}
	.st10{fill:url(#SVGID_6_);}
	.st11{opacity:0.32;fill:url(#SVGID_7_);}
	.st12{fill:url(#SVGID_8_);}
	.st13{fill:url(#SVGID_9_);}
	.st14{fill:url(#SVGID_10_);}
	.st15{opacity:0.33;}
	.st16{fill:url(#SVGID_11_);}
	.st17{opacity:0.17;fill:url(#SVGID_12_);}
	.st18{opacity:0.32;fill:url(#SVGID_13_);}
	.st19{opacity:0.32;fill:url(#SVGID_14_);}
	.st20{opacity:0.46;}
	.st21{fill:url(#SVGID_15_);}
	.st22{fill:url(#SVGID_16_);}
</style>
<g>
	<linearGradient id="SVGID_1_" gradientUnits="userSpaceOnUse" x1="30.7517" y1="17.2676" x2="59.3975" y2="17.2676">
		<stop  offset="0" style="stop-color:#FF9B5D"/>
		<stop  offset="1" style="stop-color:#FFF958"/>
	</linearGradient>
	<path class="st0" d="M51.8,15.8C51.8,15.7,51.8,15.7,51.8,15.8c0,0.2,0.1,0.5,0.2,0.8C52.1,16.3,52,16,51.8,15.8z M57.3,25.9
		c-0.4,1.2-1.2,2.2-2.2,2.9c-0.1,0.1-0.2,0.1-0.4,0.1c-0.2,0-0.5-0.1-0.6-0.4c-0.2-0.3-0.1-0.8,0.2-1c1-0.6,1.7-1.7,1.8-3
		c0-0.1,0-0.2,0-0.3c0-1.4-0.6-2.6-1.5-3.4h0c-0.5-0.5-1-0.7-1.4-0.9h0c-0.6-0.2-1-0.2-1.4-0.2c-2,0-3.6,1.7-3.6,3.7
		c0,0.4-0.3,0.7-0.7,0.7c-0.4,0-0.7-0.3-0.7-0.7c0-2.9,2.3-5.2,5-5.2c0.2,0,0.5,0,0.7,0.1c0.7,0.1,1.3,0.3,1.9,0.7
		c0-0.4,0.1-0.7,0.1-1.1c0-5.2-3.8-9.5-8.7-10.2c0,0.3,0,0.6,0,0.8c0,0.6-0.1,1.3-0.2,1.9c-0.5,2-1.7,3.8-3.5,4.9
		c-0.1,0.1-0.2,0.1-0.4,0.1c-0.2,0-0.5-0.1-0.6-0.4c-0.2-0.4-0.1-0.8,0.3-1c1.4-0.9,2.5-2.3,2.9-3.9c0.1-0.5,0.2-1,0.2-1.5
		c0-0.3,0-0.6-0.1-0.9c0,0,0,0-0.1,0c-0.3-1.7-1.2-3.2-2.5-4.2c-1.2-1-2.7-1.5-4.3-1.5c-2.1,0-4,1.1-5.2,2.7c0,0,0,0,0,0
		c-0.9,1.1-1.4,2.6-1.5,4.1c0,0.1,0,0.2,0,0.4v15.6c0,0,0,0,0,0c0.4-0.5,0.9-0.9,1.4-1.2c0.9-0.6,1.9-1,3-1.1c0.4,0,0.7,0.2,0.8,0.6
		c0,0.4-0.2,0.8-0.6,0.8c-1.2,0.1-2.3,0.7-3.1,1.5c-0.1,0.1-0.3,0.3-0.4,0.4c-0.5,0.5-0.8,1.1-1.1,1.7v3c0,0.8,0.4,1.5,1.1,1.9h0
		c0.1,0.1,0.3,0.1,0.4,0.2c0.2,0.1,0.4,0.1,0.6,0.1h9.5c-0.2-1.2-0.8-2.2-1.7-3.1c-1.1-1.1-2.6-1.7-4.1-1.6c0,0,0,0,0,0
		c-0.4,0-0.7-0.3-0.7-0.7c0-0.4,0.3-0.7,0.7-0.8c1.9-0.1,3.7,0.7,5.1,2c1.1,1.1,1.9,2.6,2.1,4.1h5.8c0.4-0.7,0.9-1.3,1.5-1.8
		c0.2-0.2,0.5-0.4,0.8-0.5c0.9-0.6,2-0.9,3.1-0.8c0.4,0,0.7,0.3,0.7,0.8c0,0.4-0.3,0.7-0.7,0.7c-1.1,0-2.1,0.4-3,1.1
		c-0.2,0.2-0.5,0.4-0.7,0.7H56c1.8,0,3.3-1.4,3.4-3.3C59.4,27.7,58.5,26.4,57.3,25.9z M39.7,20.4c-0.1,0.3-0.4,0.5-0.7,0.5
		c-0.1,0-0.2,0-0.3-0.1c-3.7-1.6-5.4-5.9-3.9-9.7c0.6-1.6,1.8-3,3.3-3.8c0.4-0.2,0.8,0,1,0.3c0.2,0.4,0,0.8-0.3,1
		c-1.2,0.6-2.2,1.7-2.7,3c-1.2,3,0.2,6.5,3.2,7.8C39.7,19.6,39.9,20,39.7,20.4z M47.9,14.4c1.4,0,2.7,0.4,3.8,1.3c0,0,0,0,0,0
		c0.1,0.3,0.2,0.6,0.3,0.9v0c0,0.1-0.1,0.2-0.1,0.2c-0.2,0.3-0.7,0.4-1,0.1c-0.8-0.7-1.9-1.1-3-1c-2.5,0.1-4.5,2.2-4.4,4.8
		c0,0.4-0.3,0.7-0.7,0.8h0c-0.4,0-0.7-0.3-0.7-0.7C42,17.3,44.6,14.5,47.9,14.4z M48.3,28.9c-0.1,0-0.1,0-0.2,0
		c-1.5,0-3-0.6-4.1-1.7c-1-1-1.7-2.4-1.8-3.8c0-0.4,0.2-0.8,0.6-0.8c0.4,0,0.7,0.2,0.8,0.7c0.1,1.1,0.6,2.1,1.4,2.9
		c0.9,0.9,2,1.3,3.2,1.3c1.2,0,2.3-0.6,3.2-1.5c0.3-0.3,0.7-0.3,1,0c0.3,0.3,0.3,0.7,0,1C51.4,28.1,49.9,28.8,48.3,28.9z"/>
	<linearGradient id="SVGID_2_" gradientUnits="userSpaceOnUse" x1="0.5797" y1="17.2676" x2="29.2255" y2="17.2676">
		<stop  offset="0" style="stop-color:#FFF958"/>
		<stop  offset="1" style="stop-color:#FF9B5D"/>
	</linearGradient>
	<path class="st1" d="M24.8,22.4c0.9,0.1,1.8,0.4,2.6,0.9c0.1,0.1,0.2,0.1,0.4,0.2c0.5,0.3,1,0.8,1.4,1.2c0,0,0,0,0,0V9.2
		c0-0.1,0-0.2,0-0.4c-0.1-1.5-0.6-2.9-1.5-4.1c0,0,0,0,0,0c-0.1-0.1-0.2-0.2-0.3-0.4c0,0,0-0.1-0.1-0.1c-0.1-0.1-0.1-0.1-0.2-0.2
		C27.1,4,27,3.9,27,3.9c-0.1-0.1-0.1-0.1-0.2-0.2c-0.1,0-0.1-0.1-0.2-0.1c-0.1-0.1-0.2-0.2-0.3-0.3c0,0-0.1-0.1-0.1-0.1
		c0,0-0.1-0.1-0.1-0.1c0,0-0.1-0.1-0.1-0.1c0,0-0.1,0-0.1-0.1c-0.2-0.1-0.3-0.2-0.5-0.3c0,0-0.1,0-0.1-0.1c0,0-0.1,0-0.1-0.1
		c-0.1,0-0.1-0.1-0.2-0.1c-0.1,0-0.1-0.1-0.2-0.1c-0.1,0-0.1,0-0.2-0.1c-0.1,0-0.2-0.1-0.3-0.1c-0.1,0-0.2,0-0.3-0.1
		c-0.1,0-0.2,0-0.3-0.1c-0.1,0-0.2,0-0.3,0c-0.1,0-0.1,0-0.2,0c-0.1,0-0.1,0-0.2,0c-0.1,0-0.1,0-0.2,0c-0.1,0-0.1,0-0.2,0
		c-0.1,0-0.1,0-0.2,0c-1.6,0-3.1,0.6-4.3,1.5c-1.3,1-2.2,2.5-2.5,4.2c0,0,0,0-0.1,0c0,0.3-0.1,0.6-0.1,0.9c0,0.6,0.1,1.1,0.2,1.7h0
		c0.4,1.6,1.4,2.9,2.8,3.8c0.3,0.2,0.5,0.7,0.3,1c-0.1,0.2-0.4,0.4-0.6,0.4c-0.1,0-0.2,0-0.4-0.1c-1.8-1.1-3.1-2.8-3.5-4.9
		c-0.1-0.6-0.2-1.2-0.2-1.9c0-0.3,0-0.6,0-0.8C9.3,8.5,5.6,12.8,5.6,18c0,0.4,0,0.7,0.1,1.1c0.6-0.4,1.3-0.6,2-0.7
		c0.2,0,0.4,0,0.7,0c2.8,0,5,2.3,5,5.2c0,0.4-0.3,0.7-0.7,0.7c-0.4,0-0.7-0.3-0.7-0.7c0-2.1-1.6-3.8-3.6-3.7c-0.3,0-0.8,0-1.3,0.2
		c-0.4,0.1-1,0.4-1.5,0.9h0c-0.9,0.8-1.5,2-1.5,3.4c0,0.1,0,0.2,0,0.3c0.1,1.2,0.7,2.3,1.8,3c0.3,0.2,0.5,0.7,0.2,1
		c-0.1,0.2-0.4,0.4-0.6,0.4c-0.1,0-0.2,0-0.4-0.1c-1.1-0.7-1.9-1.7-2.2-2.9c-1.3,0.5-2.2,1.8-2.1,3.3c0.1,1.9,1.6,3.3,3.4,3.3h4.6
		c-0.2-0.2-0.4-0.5-0.7-0.7c-0.8-0.7-1.9-1.1-3-1.1c-0.4,0-0.7-0.3-0.7-0.7c0-0.4,0.3-0.7,0.7-0.8c1.2,0,2.3,0.3,3.3,0.9
		c0.2,0.1,0.4,0.3,0.6,0.5c0.6,0.5,1.1,1.1,1.5,1.8h5.8c0.3-1.6,1-3,2.1-4.1c1.4-1.4,3.2-2.1,5.1-2c0.4,0,0.7,0.3,0.7,0.8
		c0,0.4-0.3,0.7-0.7,0.7c0,0,0,0,0,0c-1.5,0-3,0.5-4.1,1.6c-0.8,0.8-1.4,1.9-1.6,3c0,0,0,0.1,0,0.1h9.5c0.2,0,0.4,0,0.6-0.1
		c0.1,0,0.3-0.1,0.4-0.2h0c0.6-0.4,1.1-1.1,1.1-1.9v-3c-0.3-0.6-0.6-1.2-1.1-1.7c-0.1-0.1-0.3-0.3-0.4-0.4c-0.3-0.2-0.6-0.5-0.9-0.7
		c-0.7-0.4-1.4-0.7-2.2-0.8c-0.4,0-0.7-0.4-0.6-0.8C24,22.6,24.4,22.3,24.8,22.4z M17.8,23.4c-0.2,1.4-0.8,2.8-1.8,3.8
		c-1.1,1.1-2.6,1.7-4.1,1.7c-0.1,0-0.1,0-0.2,0c-1.6,0-3.1-0.7-4.2-1.9c-0.3-0.3-0.3-0.8,0-1c0.3-0.3,0.7-0.3,1,0
		c0.8,0.9,2,1.4,3.2,1.5c1.2,0,2.4-0.4,3.2-1.3c0.8-0.8,1.3-1.8,1.4-2.9c0-0.4,0.4-0.7,0.8-0.7C17.5,22.6,17.8,23,17.8,23.4z
		 M17.9,20.7c0,0.4-0.3,0.7-0.7,0.7h0c-0.4,0-0.7-0.4-0.7-0.8c0.1-2.6-1.9-4.8-4.4-4.8c-1.1,0-2.1,0.3-3,1c-0.3,0.3-0.8,0.2-1-0.1
		c0,0-0.1-0.1-0.1-0.1c0.1-0.4,0.2-0.7,0.4-1.1h0c1.1-0.8,2.4-1.2,3.7-1.2C15.4,14.5,18,17.3,17.9,20.7z M21.2,20.8
		c-0.1,0-0.2,0.1-0.3,0.1c-0.3,0-0.5-0.2-0.7-0.5c-0.1-0.4,0-0.8,0.4-1c2.9-1.2,4.4-4.7,3.2-7.8c-0.5-1.3-1.5-2.4-2.7-3
		c-0.4-0.2-0.5-0.6-0.3-1c0.2-0.4,0.6-0.5,1-0.3c1.5,0.8,2.7,2.2,3.3,3.8C26.6,14.9,24.9,19.2,21.2,20.8z M8.2,15.8
		C7.9,16,7.8,16.4,8,16.7c0.1-0.4,0.2-0.7,0.4-1.1C8.3,15.7,8.2,15.7,8.2,15.8z"/>
	<g class="st2">
		<path class="st3" d="M27.8,4.8c-2.5-2.1-10.2-1.4-11.9,5.6h0c-0.1-0.5-0.2-1.1-0.2-1.7c0-0.3,0-0.6,0.1-0.9c0,0,0,0,0.1,0
			c0.3-1.7,1.2-3.2,2.5-4.2c1.2-1,2.7-1.5,4.3-1.5C24.6,2,26.5,3.1,27.8,4.8z"/>
		<path class="st3" d="M44.3,7.8c0,0.3,0.1,0.6,0.1,0.9c0,0.5-0.1,1-0.2,1.5c-1.8-6.9-9.4-7.5-11.9-5.5c0,0,0,0,0-0.1
			C33.5,3.1,35.4,2,37.5,2c1.6,0,3.1,0.6,4.3,1.5C43,4.6,43.9,6.1,44.3,7.8C44.3,7.8,44.3,7.8,44.3,7.8z"/>
	</g>
	<g class="st4">
		<path class="st3" d="M8.6,32.5H4c-1.8,0-3.3-1.4-3.4-3.3c-0.1-1.5,0.9-2.8,2.1-3.3c0.4,1.2,1.2,2.2,2.2,2.9
			c0.1,0.1,0.2,0.1,0.4,0.1c0.2,0,0.5-0.1,0.6-0.4c0.2-0.3,0.1-0.8-0.2-1c-1-0.6-1.7-1.7-1.8-3c0-0.1,0-0.2,0-0.3
			c0-1.4,0.6-2.6,1.5-3.4h0C6,20.4,6.5,20.1,6.9,20c-0.7,2.3-1.4,6.4,1.3,10.3c-1-0.6-2.1-1-3.3-0.9c-0.4,0-0.7,0.3-0.7,0.8
			c0,0.4,0.3,0.7,0.7,0.7c1.1,0,2.1,0.4,3,1.1C8.2,32,8.4,32.3,8.6,32.5z"/>
		<path class="st3" d="M14.4,10.6c-1.7,0.4-4.6,1.5-6,5h0c-0.1,0.3-0.3,0.7-0.4,1.1c-0.1,0.5-0.3,1-0.4,1.6c0,0,0,0-0.1,0.1
			c-0.7,0.1-1.4,0.3-2,0.7c0-0.4-0.1-0.7-0.1-1.1c0-5.2,3.8-9.5,8.7-10.2c0,0.3,0,0.6,0,0.8C14.2,9.3,14.3,10,14.4,10.6z"/>
		<path class="st3" d="M54.4,18c0,0.4,0,0.7-0.1,1.1c-0.6-0.4-1.2-0.6-1.9-0.7c0-0.1-0.1-0.1-0.1-0.1c-0.1-0.6-0.2-1.1-0.4-1.7v0
			c-0.1-0.3-0.2-0.6-0.3-0.9c0,0,0,0,0,0c-1.5-3.6-4.4-4.8-6.2-5.2c0.1-0.6,0.2-1.2,0.2-1.9c0-0.3,0-0.6,0-0.8
			C50.6,8.5,54.4,12.8,54.4,18z"/>
		<path class="st3" d="M59.4,29.2c-0.1,1.9-1.6,3.3-3.4,3.3h-4.6c0.2-0.2,0.4-0.5,0.7-0.7c0.8-0.7,1.9-1.1,3-1.1
			c0.4,0,0.7-0.3,0.7-0.7c0-0.4-0.3-0.7-0.7-0.8c-1.1,0-2.2,0.3-3.1,0.8c2.6-3.8,1.9-7.9,1.2-10.2c0.4,0.1,0.9,0.4,1.4,0.9h0
			c0.9,0.8,1.5,2,1.5,3.4c0,0.1,0,0.2,0,0.3c-0.1,1.2-0.7,2.3-1.8,3c-0.3,0.2-0.5,0.7-0.2,1c0.1,0.2,0.4,0.4,0.6,0.4
			c0.1,0,0.2,0,0.4-0.1c1.1-0.7,1.9-1.7,2.2-2.9C58.5,26.4,59.4,27.7,59.4,29.2z"/>
	</g>
	<g>
		<path class="st5" d="M29.2,9.2v15.6c0,0,0,0,0,0c-0.4-0.5-0.9-0.9-1.4-1.2c-0.1-0.1-0.2-0.2-0.4-0.2c1.2-3.5,1.8-8.2,1.8-14.4
			C29.2,8.9,29.2,9.1,29.2,9.2z"/>
		<path class="st5" d="M28.1,25.7c0.5,0.5,0.8,1.1,1.1,1.7v3c0,0.8-0.4,1.5-1.1,1.9h0c-0.1,0.1-0.3,0.1-0.4,0.2
			c-0.2,0.1-0.4,0.1-0.6,0.1h-9.5c0,0,0-0.1,0-0.1c3.8-0.4,7.1-2.6,9.2-7.8c0.3,0.2,0.6,0.4,0.9,0.7C27.9,25.4,28,25.5,28.1,25.7z"
			/>
	</g>
	<g>
		<path class="st5" d="M30.8,9.2v15.6c0,0,0,0,0,0c0.4-0.5,0.9-0.9,1.4-1.2c0.1-0.1,0.2-0.2,0.4-0.2c-1.2-3.5-1.8-8.2-1.8-14.4
			C30.8,8.9,30.8,9.1,30.8,9.2z"/>
		<path class="st5" d="M31.8,25.7c-0.5,0.5-0.8,1.1-1.1,1.7v3c0,0.8,0.4,1.5,1.1,1.9h0c0.1,0.1,0.3,0.1,0.4,0.2
			c0.2,0.1,0.4,0.1,0.6,0.1h9.5c0,0,0-0.1,0-0.1c-3.8-0.4-7.1-2.6-9.2-7.8c-0.3,0.2-0.6,0.4-0.9,0.7C32.1,25.4,32,25.5,31.8,25.7z"
			/>
	</g>
</g>
<g>
	<g>
		<path class="st6" d="M28.2,57.8c-0.3,0-0.5-0.2-0.5-0.5c0-0.3,0.2-0.5,0.5-0.5c2.6,0,4.7-2.2,4.7-4.9c0-0.3,0.2-0.5,0.5-0.5
			c0.3,0,0.5,0.2,0.5,0.5C33.8,55.2,31.3,57.8,28.2,57.8z"/>
	</g>
	<g>
		<g>
			<g>
				<linearGradient id="SVGID_3_" gradientUnits="userSpaceOnUse" x1="0.1915" y1="45.0733" x2="6.114" y2="45.0733">
					<stop  offset="0" style="stop-color:#2FB97D"/>
					<stop  offset="1" style="stop-color:#1AB69D"/>
				</linearGradient>
				<path class="st7" d="M4.9,46.4H1.4c-0.7,0-1.3-0.6-1.3-1.3c0-0.7,0.6-1.3,1.3-1.3h3.4c0.7,0,1.3,0.6,1.3,1.3
					C6.1,45.8,5.6,46.4,4.9,46.4z"/>
			</g>
		</g>
		<g>
			<g>
				<linearGradient id="SVGID_4_" gradientUnits="userSpaceOnUse" x1="53.5779" y1="45.0733" x2="59.5005" y2="45.0733">
					<stop  offset="0" style="stop-color:#2FB97D"/>
					<stop  offset="1" style="stop-color:#1AB69D"/>
				</linearGradient>
				<path class="st8" d="M58.2,46.4h-3.4c-0.7,0-1.3-0.6-1.3-1.3c0-0.7,0.6-1.3,1.3-1.3h3.4c0.7,0,1.3,0.6,1.3,1.3
					C59.5,45.8,58.9,46.4,58.2,46.4z"/>
			</g>
		</g>
		<g>
			<g>
				<linearGradient id="SVGID_5_" gradientUnits="userSpaceOnUse" x1="23.0994" y1="43.2327" x2="36.7324" y2="43.2327">
					<stop  offset="0" style="stop-color:#2FB97D"/>
					<stop  offset="1" style="stop-color:#1AB69D"/>
				</linearGradient>
				<path class="st9" d="M35.8,46.3c-0.8,0.3-1.6,0-2-0.8c-0.3-0.7-0.7-1.3-1.3-1.8c-0.6-0.5-1.4-0.8-2.1-0.9c-0.1,0-0.3,0-0.4,0
					c-0.1,0-0.3,0-0.4,0c-0.8,0.1-1.6,0.4-2.3,1c-0.6,0.5-1.1,1.2-1.3,1.9c-0.2,0.6-0.8,1-1.4,1c-0.2,0-0.3,0-0.5-0.1
					c-0.8-0.3-1.2-1.2-0.9-2c0.6-1.7,1.7-3,3.1-3.9c0.9-0.6,1.9-0.9,3-1c0.2,0,0.5,0,0.7,0c0.2,0,0.4,0,0.7,0c1.1,0.1,2.1,0.4,3,1
					c1.3,0.8,2.4,2,3,3.5C36.9,45,36.6,46,35.8,46.3z"/>
			</g>
		</g>
		<linearGradient id="SVGID_6_" gradientUnits="userSpaceOnUse" x1="3.3114" y1="45.9943" x2="25.9488" y2="45.9943">
			<stop  offset="0" style="stop-color:#2FB97D"/>
			<stop  offset="1" style="stop-color:#1AB69D"/>
		</linearGradient>
		<path class="st10" d="M14.6,34.3C8.4,34.3,3.3,39.5,3.3,46c0,6.5,5.1,11.7,11.3,11.7c6.3,0,11.3-5.2,11.3-11.7
			C25.9,39.5,20.9,34.3,14.6,34.3z M14.6,54.6c-4.6,0-8.4-3.9-8.4-8.7c0-4.8,3.7-8.7,8.4-8.7S23,41.2,23,46
			C23,50.8,19.2,54.6,14.6,54.6z"/>
		<linearGradient id="SVGID_7_" gradientUnits="userSpaceOnUse" x1="3.3114" y1="47.265" x2="22.6616" y2="47.265">
			<stop  offset="0" style="stop-color:#2FB97D"/>
			<stop  offset="1" style="stop-color:#1AB69D"/>
		</linearGradient>
		<path class="st11" d="M15.6,56.8c-6.2,0-11.3-5.2-11.3-11.7c0-3.2,1.3-6.1,3.3-8.3C5,39,3.3,42.3,3.3,46c0,6.5,5.1,11.7,11.3,11.7
			c3.1,0,6-1.3,8-3.5C20.7,55.8,18.3,56.8,15.6,56.8z"/>
		<g>
			<g>
				<linearGradient id="SVGID_8_" gradientUnits="userSpaceOnUse" x1="7.6416" y1="42.6494" x2="15.155" y2="42.6494">
					<stop  offset="0" style="stop-color:#2FB97D"/>
					<stop  offset="1" style="stop-color:#1AB69D"/>
				</linearGradient>
				<path class="st12" d="M8.2,46.5c-0.3,0-0.5-0.2-0.5-0.5c0-4,3.1-7.2,7-7.2c0.3,0,0.5,0.2,0.5,0.5c0,0.3-0.2,0.5-0.5,0.5
					c-3.3,0-5.9,2.8-5.9,6.1C8.7,46.3,8.5,46.5,8.2,46.5z"/>
			</g>
		</g>
		<linearGradient id="SVGID_9_" gradientUnits="userSpaceOnUse" x1="33.9019" y1="45.9943" x2="56.5392" y2="45.9943">
			<stop  offset="0" style="stop-color:#2FB97D"/>
			<stop  offset="1" style="stop-color:#1AB69D"/>
		</linearGradient>
		<path class="st13" d="M33.9,46c0,6.5,5.1,11.7,11.3,11.7c6.2,0,11.3-5.2,11.3-11.7c0-6.5-5.1-11.7-11.3-11.7
			C39,34.3,33.9,39.5,33.9,46z M36.9,46c0-4.8,3.7-8.7,8.4-8.7c4.6,0,8.4,3.9,8.4,8.7c0,4.8-3.7,8.7-8.4,8.7
			C40.6,54.6,36.9,50.8,36.9,46z"/>
		<g>
			<linearGradient id="SVGID_10_" gradientUnits="userSpaceOnUse" x1="44.6956" y1="42.6494" x2="52.209" y2="42.6494">
				<stop  offset="0" style="stop-color:#2FB97D"/>
				<stop  offset="1" style="stop-color:#1AB69D"/>
			</linearGradient>
			<path class="st14" d="M51.7,46.5c0.3,0,0.5-0.2,0.5-0.5c0-4-3.1-7.2-7-7.2c-0.3,0-0.5,0.2-0.5,0.5c0,0.3,0.2,0.5,0.5,0.5
				c3.3,0,5.9,2.8,5.9,6.1C51.2,46.3,51.4,46.5,51.7,46.5z"/>
		</g>
		<g class="st15">
			<linearGradient id="SVGID_11_" gradientUnits="userSpaceOnUse" x1="33.9019" y1="47.265" x2="53.252" y2="47.265">
				<stop  offset="0" style="stop-color:#2FB97D"/>
				<stop  offset="1" style="stop-color:#1AB69D"/>
			</linearGradient>
			<path class="st16" d="M46.2,56.8c-6.2,0-11.3-5.2-11.3-11.7c0-3.2,1.3-6.1,3.3-8.3c-2.6,2.1-4.3,5.5-4.3,9.2
				c0,6.5,5.1,11.7,11.3,11.7c3.1,0,6-1.3,8-3.5C51.3,55.8,48.9,56.8,46.2,56.8z"/>
		</g>
		<linearGradient id="SVGID_12_" gradientUnits="userSpaceOnUse" x1="29.257" y1="41.2702" x2="30.649" y2="41.2702">
			<stop  offset="0" style="stop-color:#2FB97D"/>
			<stop  offset="1" style="stop-color:#1AB69D"/>
		</linearGradient>
		<path class="st17" d="M30.6,39.7l-0.2,3.1c-0.1,0-0.3,0-0.4,0c-0.1,0-0.3,0-0.4,0l-0.3-3.1c0.2,0,0.5,0,0.7,0
			C30.2,39.7,30.4,39.7,30.6,39.7z"/>
		<linearGradient id="SVGID_13_" gradientUnits="userSpaceOnUse" x1="9.5567" y1="44.388" x2="23.5526" y2="44.388">
			<stop  offset="0" style="stop-color:#2FB97D"/>
			<stop  offset="1" style="stop-color:#1AB69D"/>
		</linearGradient>
		<path class="st18" d="M15.7,36.8c-2.4,0-4.6,0.6-6.1,2.3c1.4-1.1,3.2-1.8,5.1-1.8c4.6,0,8.4,3.9,8.4,8.7c0,2.3-0.9,4.4-2.3,6
			c2-1.6,2.9-3.8,2.9-6.6C23.6,41.1,19.8,36.8,15.7,36.8z"/>
		<linearGradient id="SVGID_14_" gradientUnits="userSpaceOnUse" x1="40.0983" y1="44.388" x2="54.0941" y2="44.388">
			<stop  offset="0" style="stop-color:#2FB97D"/>
			<stop  offset="1" style="stop-color:#1AB69D"/>
		</linearGradient>
		<path class="st19" d="M46.2,36.8c-2.4,0-4.6,0.6-6.1,2.3c1.4-1.1,3.2-1.8,5.1-1.8c4.6,0,8.4,3.9,8.4,8.7c0,2.3-0.9,4.4-2.3,6
			c2-1.6,2.9-3.8,2.9-6.6C54.1,41.1,50.3,36.8,46.2,36.8z"/>
		<g class="st20">
			<linearGradient id="SVGID_15_" gradientUnits="userSpaceOnUse" x1="16.0144" y1="38.3912" x2="23.739" y2="38.3912">
				<stop  offset="0" style="stop-color:#2FB97D"/>
				<stop  offset="1" style="stop-color:#1AB69D"/>
			</linearGradient>
			<path class="st21" d="M23.4,41.4c-0.1,0-0.2-0.1-0.3-0.2c-1.4-2.8-3.9-4.7-6.9-5.3c-0.2,0-0.3-0.2-0.3-0.4c0-0.2,0.2-0.3,0.4-0.3
				c3.1,0.6,5.9,2.7,7.3,5.6c0.1,0.2,0,0.4-0.1,0.4C23.5,41.4,23.5,41.4,23.4,41.4z"/>
		</g>
		<g class="st20">
			<linearGradient id="SVGID_16_" gradientUnits="userSpaceOnUse" x1="46.8311" y1="38.3912" x2="54.5557" y2="38.3912">
				<stop  offset="0" style="stop-color:#2FB97D"/>
				<stop  offset="1" style="stop-color:#1AB69D"/>
			</linearGradient>
			<path class="st22" d="M54.2,41.4c-0.1,0-0.2-0.1-0.3-0.2c-1.4-2.8-3.9-4.7-6.9-5.3c-0.2,0-0.3-0.2-0.3-0.4c0-0.2,0.2-0.3,0.4-0.3
				c3.1,0.6,5.9,2.7,7.3,5.6c0.1,0.2,0,0.4-0.1,0.4C54.3,41.4,54.3,41.4,54.2,41.4z"/>
		</g>
	</g>
	<g>
		<ellipse class="st6" cx="14.6" cy="46" rx="2.3" ry="2.4"/>
		<ellipse class="st6" cx="45.3" cy="46" rx="2.3" ry="2.4"/>
	</g>
</g>
<g>
	<path d="M69.1,53.9V37.3h3.3v13.3H81v3.3H69.1z"/>
	<path d="M81.9,47.7c0-4,2.5-6.5,6.2-6.5c3.7,0,6.2,2.5,6.2,6.5c0,3.9-2.5,6.5-6.2,6.5C84.4,54.2,81.9,51.6,81.9,47.7z M91.1,47.7
		c0-2.2-0.8-3.2-3-3.2c-2.2,0-3,1-3,3.2s0.8,3.2,3,3.2C90.3,50.9,91.1,49.9,91.1,47.7z"/>
	<path d="M95.3,47c0-3.5,2-5.7,5.2-5.7c2.2,0,3.8,1.1,4.1,3.3h0.2v-3h3v10.6c0,4.3-2.3,6.3-6.2,6.3c-3.5,0-5.7-1.8-5.7-4.9h3.3
		c0,1.4,0.5,1.8,2.7,1.8c2.1,0,2.7-0.5,2.7-2.9v-2.8h-0.2c-0.3,1.8-1.6,3.1-4.1,3.1C97.2,52.7,95.3,50.4,95.3,47z M101.6,49.5
		c2.1,0,3.1-0.7,3.1-2.4v-0.3c0-1.7-1-2.3-3.1-2.3c-2.1,0-3,0.6-3,2.5C98.6,48.8,99.5,49.5,101.6,49.5z"/>
	<path d="M109.6,40.2v-2.9h3.3v2.9H109.6z M109.6,53.9V41.5h3.3v12.4H109.6z"/>
	<path d="M114.3,47.7c0-4,2.4-6.5,6.1-6.5c3.5,0,5.9,2.1,5.9,5.4V47H123v-0.2c0-1.6-1-2.2-2.7-2.2c-1.9,0-2.8,0.8-2.8,3.1
		c0,2.3,0.9,3.1,2.8,3.1c1.7,0,2.7-0.6,2.7-2.2v-0.2h3.2v0.3c0,3.2-2.4,5.4-5.9,5.4C116.7,54.2,114.3,51.6,114.3,47.7z"/>
	<path d="M130.7,47.9v-0.8h1.6V48c0,2.9,1.1,4.4,4.2,4.4c3.1,0,4.2-1.5,4.2-4.3V37.3h1.6V48c0,3.5-1.6,6.2-5.8,6.2
		C132.4,54.2,130.7,51.5,130.7,47.9z"/>
	<path d="M144.8,48.8v-7.2h1.5v6.9c0,2.6,1.1,4,3.6,4c2.6,0,4-1.8,4-5v-6h1.5v12.3H154v-3.8h-0.1c-0.4,2.1-1.9,4.1-4.6,4.1
		C146.3,54.2,144.8,51.7,144.8,48.8z"/>
	<path d="M158,53.9V41.7h1.4v3.8h0.1c0.4-2.1,1.9-4.1,4.6-4.1c3,0,4.5,2.5,4.5,5.4v7.1H167V47c0-2.5-1.1-4-3.5-4c-2.6,0-4,1.8-4,5
		v5.9H158z"/>
	<path d="M171.1,40.1v-2.8h1.5v2.8H171.1z M171.1,53.9V41.7h1.5v12.3H171.1z"/>
	<path d="M174.6,47.8c0-3.7,2.3-6.4,5.8-6.4c3.5,0,5.8,2.7,5.8,6.4c0,3.7-2.3,6.4-5.8,6.4C176.9,54.2,174.6,51.5,174.6,47.8z
		 M184.7,47.8c0-3-1.4-4.8-4.3-4.8c-3,0-4.3,1.8-4.3,4.8c0,3,1.3,4.8,4.3,4.8C183.4,52.6,184.7,50.8,184.7,47.8z"/>
	<path d="M188.3,53.9V41.7h1.4V45h0.1c0.3-2,1.5-3.6,3.8-3.6c2.5,0,3.6,2.1,3.6,4.4V47h-1.5v-0.9c0-2.1-0.8-3.1-2.6-3.1
		c-2.2,0-3.1,1.6-3.1,4.3v6.6H188.3z"/>
</g>
</svg>
